%TF.GenerationSoftware,KiCad,Pcbnew,9.0.7*%
%TF.CreationDate,2026-04-01T10:03:07+01:00*%
%TF.ProjectId,ephys-test-module-32,65706879-732d-4746-9573-742d6d6f6475,A*%
%TF.SameCoordinates,PX66ff300PY82a7440*%
%TF.FileFunction,Legend,Top*%
%TF.FilePolarity,Positive*%
%FSLAX46Y46*%
G04 Gerber Fmt 4.6, Leading zero omitted, Abs format (unit mm)*
G04 Created by KiCad (PCBNEW 9.0.7) date 2026-04-01 10:03:07*
%MOMM*%
%LPD*%
G01*
G04 APERTURE LIST*
%ADD10C,0.000000*%
%ADD11C,0.150000*%
%ADD12C,0.200000*%
%ADD13C,0.120000*%
G04 APERTURE END LIST*
D10*
G36*
X66748091Y2423733D02*
G01*
X55698091Y2423733D01*
X55698091Y2573733D01*
X66598091Y2573733D01*
X66598091Y8121233D01*
X57440591Y8121233D01*
X57440591Y8271233D01*
X66748091Y8271233D01*
X66748091Y2423733D01*
G37*
D11*
X59126009Y35082857D02*
X59126009Y34749524D01*
X59649819Y34749524D02*
X58649819Y34749524D01*
X58649819Y34749524D02*
X58649819Y35225714D01*
X59649819Y35606667D02*
X58983152Y35606667D01*
X59173628Y35606667D02*
X59078390Y35654286D01*
X59078390Y35654286D02*
X59030771Y35701905D01*
X59030771Y35701905D02*
X58983152Y35797143D01*
X58983152Y35797143D02*
X58983152Y35892381D01*
X59649819Y36368572D02*
X59602200Y36273334D01*
X59602200Y36273334D02*
X59554580Y36225715D01*
X59554580Y36225715D02*
X59459342Y36178096D01*
X59459342Y36178096D02*
X59173628Y36178096D01*
X59173628Y36178096D02*
X59078390Y36225715D01*
X59078390Y36225715D02*
X59030771Y36273334D01*
X59030771Y36273334D02*
X58983152Y36368572D01*
X58983152Y36368572D02*
X58983152Y36511429D01*
X58983152Y36511429D02*
X59030771Y36606667D01*
X59030771Y36606667D02*
X59078390Y36654286D01*
X59078390Y36654286D02*
X59173628Y36701905D01*
X59173628Y36701905D02*
X59459342Y36701905D01*
X59459342Y36701905D02*
X59554580Y36654286D01*
X59554580Y36654286D02*
X59602200Y36606667D01*
X59602200Y36606667D02*
X59649819Y36511429D01*
X59649819Y36511429D02*
X59649819Y36368572D01*
X58983152Y37130477D02*
X59649819Y37130477D01*
X59078390Y37130477D02*
X59030771Y37178096D01*
X59030771Y37178096D02*
X58983152Y37273334D01*
X58983152Y37273334D02*
X58983152Y37416191D01*
X58983152Y37416191D02*
X59030771Y37511429D01*
X59030771Y37511429D02*
X59126009Y37559048D01*
X59126009Y37559048D02*
X59649819Y37559048D01*
X58983152Y37892382D02*
X58983152Y38273334D01*
X58649819Y38035239D02*
X59506961Y38035239D01*
X59506961Y38035239D02*
X59602200Y38082858D01*
X59602200Y38082858D02*
X59649819Y38178096D01*
X59649819Y38178096D02*
X59649819Y38273334D01*
D12*
X90859524Y15147091D02*
X90735714Y15208996D01*
X90735714Y15208996D02*
X90550000Y15208996D01*
X90550000Y15208996D02*
X90364286Y15147091D01*
X90364286Y15147091D02*
X90240476Y15023281D01*
X90240476Y15023281D02*
X90178571Y14899472D01*
X90178571Y14899472D02*
X90116667Y14651853D01*
X90116667Y14651853D02*
X90116667Y14466139D01*
X90116667Y14466139D02*
X90178571Y14218520D01*
X90178571Y14218520D02*
X90240476Y14094710D01*
X90240476Y14094710D02*
X90364286Y13970900D01*
X90364286Y13970900D02*
X90550000Y13908996D01*
X90550000Y13908996D02*
X90673809Y13908996D01*
X90673809Y13908996D02*
X90859524Y13970900D01*
X90859524Y13970900D02*
X90921428Y14032805D01*
X90921428Y14032805D02*
X90921428Y14466139D01*
X90921428Y14466139D02*
X90673809Y14466139D01*
X91478571Y13908996D02*
X91478571Y15208996D01*
X91478571Y15208996D02*
X92221428Y13908996D01*
X92221428Y13908996D02*
X92221428Y15208996D01*
X92840476Y13908996D02*
X92840476Y15208996D01*
X92840476Y15208996D02*
X93150000Y15208996D01*
X93150000Y15208996D02*
X93335714Y15147091D01*
X93335714Y15147091D02*
X93459524Y15023281D01*
X93459524Y15023281D02*
X93521429Y14899472D01*
X93521429Y14899472D02*
X93583333Y14651853D01*
X93583333Y14651853D02*
X93583333Y14466139D01*
X93583333Y14466139D02*
X93521429Y14218520D01*
X93521429Y14218520D02*
X93459524Y14094710D01*
X93459524Y14094710D02*
X93335714Y13970900D01*
X93335714Y13970900D02*
X93150000Y13908996D01*
X93150000Y13908996D02*
X92840476Y13908996D01*
D11*
X41683990Y37604286D02*
X41636371Y37461429D01*
X41636371Y37461429D02*
X41588752Y37413810D01*
X41588752Y37413810D02*
X41493514Y37366191D01*
X41493514Y37366191D02*
X41350657Y37366191D01*
X41350657Y37366191D02*
X41255419Y37413810D01*
X41255419Y37413810D02*
X41207800Y37461429D01*
X41207800Y37461429D02*
X41160180Y37556667D01*
X41160180Y37556667D02*
X41160180Y37937619D01*
X41160180Y37937619D02*
X42160180Y37937619D01*
X42160180Y37937619D02*
X42160180Y37604286D01*
X42160180Y37604286D02*
X42112561Y37509048D01*
X42112561Y37509048D02*
X42064942Y37461429D01*
X42064942Y37461429D02*
X41969704Y37413810D01*
X41969704Y37413810D02*
X41874466Y37413810D01*
X41874466Y37413810D02*
X41779228Y37461429D01*
X41779228Y37461429D02*
X41731609Y37509048D01*
X41731609Y37509048D02*
X41683990Y37604286D01*
X41683990Y37604286D02*
X41683990Y37937619D01*
X41160180Y36509048D02*
X41683990Y36509048D01*
X41683990Y36509048D02*
X41779228Y36556667D01*
X41779228Y36556667D02*
X41826847Y36651905D01*
X41826847Y36651905D02*
X41826847Y36842381D01*
X41826847Y36842381D02*
X41779228Y36937619D01*
X41207800Y36509048D02*
X41160180Y36604286D01*
X41160180Y36604286D02*
X41160180Y36842381D01*
X41160180Y36842381D02*
X41207800Y36937619D01*
X41207800Y36937619D02*
X41303038Y36985238D01*
X41303038Y36985238D02*
X41398276Y36985238D01*
X41398276Y36985238D02*
X41493514Y36937619D01*
X41493514Y36937619D02*
X41541133Y36842381D01*
X41541133Y36842381D02*
X41541133Y36604286D01*
X41541133Y36604286D02*
X41588752Y36509048D01*
X41207800Y35604286D02*
X41160180Y35699524D01*
X41160180Y35699524D02*
X41160180Y35890000D01*
X41160180Y35890000D02*
X41207800Y35985238D01*
X41207800Y35985238D02*
X41255419Y36032857D01*
X41255419Y36032857D02*
X41350657Y36080476D01*
X41350657Y36080476D02*
X41636371Y36080476D01*
X41636371Y36080476D02*
X41731609Y36032857D01*
X41731609Y36032857D02*
X41779228Y35985238D01*
X41779228Y35985238D02*
X41826847Y35890000D01*
X41826847Y35890000D02*
X41826847Y35699524D01*
X41826847Y35699524D02*
X41779228Y35604286D01*
X41160180Y35175714D02*
X42160180Y35175714D01*
X41541133Y35080476D02*
X41160180Y34794762D01*
X41826847Y34794762D02*
X41445895Y35175714D01*
D12*
X77807142Y13908996D02*
X77373809Y14528043D01*
X77064285Y13908996D02*
X77064285Y15208996D01*
X77064285Y15208996D02*
X77559523Y15208996D01*
X77559523Y15208996D02*
X77683333Y15147091D01*
X77683333Y15147091D02*
X77745238Y15085186D01*
X77745238Y15085186D02*
X77807142Y14961377D01*
X77807142Y14961377D02*
X77807142Y14775662D01*
X77807142Y14775662D02*
X77745238Y14651853D01*
X77745238Y14651853D02*
X77683333Y14589948D01*
X77683333Y14589948D02*
X77559523Y14528043D01*
X77559523Y14528043D02*
X77064285Y14528043D01*
X78364285Y14589948D02*
X78797619Y14589948D01*
X78983333Y13908996D02*
X78364285Y13908996D01*
X78364285Y13908996D02*
X78364285Y15208996D01*
X78364285Y15208996D02*
X78983333Y15208996D01*
X79973809Y14589948D02*
X79540475Y14589948D01*
X79540475Y13908996D02*
X79540475Y15208996D01*
X79540475Y15208996D02*
X80159523Y15208996D01*
X77807142Y11408996D02*
X77373809Y12028043D01*
X77064285Y11408996D02*
X77064285Y12708996D01*
X77064285Y12708996D02*
X77559523Y12708996D01*
X77559523Y12708996D02*
X77683333Y12647091D01*
X77683333Y12647091D02*
X77745238Y12585186D01*
X77745238Y12585186D02*
X77807142Y12461377D01*
X77807142Y12461377D02*
X77807142Y12275662D01*
X77807142Y12275662D02*
X77745238Y12151853D01*
X77745238Y12151853D02*
X77683333Y12089948D01*
X77683333Y12089948D02*
X77559523Y12028043D01*
X77559523Y12028043D02*
X77064285Y12028043D01*
X78364285Y12089948D02*
X78797619Y12089948D01*
X78983333Y11408996D02*
X78364285Y11408996D01*
X78364285Y11408996D02*
X78364285Y12708996D01*
X78364285Y12708996D02*
X78983333Y12708996D01*
X79973809Y12089948D02*
X79540475Y12089948D01*
X79540475Y11408996D02*
X79540475Y12708996D01*
X79540475Y12708996D02*
X80159523Y12708996D01*
X90859524Y12647091D02*
X90735714Y12708996D01*
X90735714Y12708996D02*
X90550000Y12708996D01*
X90550000Y12708996D02*
X90364286Y12647091D01*
X90364286Y12647091D02*
X90240476Y12523281D01*
X90240476Y12523281D02*
X90178571Y12399472D01*
X90178571Y12399472D02*
X90116667Y12151853D01*
X90116667Y12151853D02*
X90116667Y11966139D01*
X90116667Y11966139D02*
X90178571Y11718520D01*
X90178571Y11718520D02*
X90240476Y11594710D01*
X90240476Y11594710D02*
X90364286Y11470900D01*
X90364286Y11470900D02*
X90550000Y11408996D01*
X90550000Y11408996D02*
X90673809Y11408996D01*
X90673809Y11408996D02*
X90859524Y11470900D01*
X90859524Y11470900D02*
X90921428Y11532805D01*
X90921428Y11532805D02*
X90921428Y11966139D01*
X90921428Y11966139D02*
X90673809Y11966139D01*
X91478571Y11408996D02*
X91478571Y12708996D01*
X91478571Y12708996D02*
X92221428Y11408996D01*
X92221428Y11408996D02*
X92221428Y12708996D01*
X92840476Y11408996D02*
X92840476Y12708996D01*
X92840476Y12708996D02*
X93150000Y12708996D01*
X93150000Y12708996D02*
X93335714Y12647091D01*
X93335714Y12647091D02*
X93459524Y12523281D01*
X93459524Y12523281D02*
X93521429Y12399472D01*
X93521429Y12399472D02*
X93583333Y12151853D01*
X93583333Y12151853D02*
X93583333Y11966139D01*
X93583333Y11966139D02*
X93521429Y11718520D01*
X93521429Y11718520D02*
X93459524Y11594710D01*
X93459524Y11594710D02*
X93335714Y11470900D01*
X93335714Y11470900D02*
X93150000Y11408996D01*
X93150000Y11408996D02*
X92840476Y11408996D01*
D11*
X84795628Y10045181D02*
X84795628Y9330896D01*
X84795628Y9330896D02*
X84748009Y9188039D01*
X84748009Y9188039D02*
X84652771Y9092800D01*
X84652771Y9092800D02*
X84509914Y9045181D01*
X84509914Y9045181D02*
X84414676Y9045181D01*
X85700390Y9711848D02*
X85700390Y9045181D01*
X85462295Y10092800D02*
X85224200Y9378515D01*
X85224200Y9378515D02*
X85843247Y9378515D01*
X49336666Y44655181D02*
X49336666Y43940896D01*
X49336666Y43940896D02*
X49289047Y43798039D01*
X49289047Y43798039D02*
X49193809Y43702800D01*
X49193809Y43702800D02*
X49050952Y43655181D01*
X49050952Y43655181D02*
X48955714Y43655181D01*
X50289047Y44655181D02*
X49812857Y44655181D01*
X49812857Y44655181D02*
X49765238Y44178991D01*
X49765238Y44178991D02*
X49812857Y44226610D01*
X49812857Y44226610D02*
X49908095Y44274229D01*
X49908095Y44274229D02*
X50146190Y44274229D01*
X50146190Y44274229D02*
X50241428Y44226610D01*
X50241428Y44226610D02*
X50289047Y44178991D01*
X50289047Y44178991D02*
X50336666Y44083753D01*
X50336666Y44083753D02*
X50336666Y43845658D01*
X50336666Y43845658D02*
X50289047Y43750420D01*
X50289047Y43750420D02*
X50241428Y43702800D01*
X50241428Y43702800D02*
X50146190Y43655181D01*
X50146190Y43655181D02*
X49908095Y43655181D01*
X49908095Y43655181D02*
X49812857Y43702800D01*
X49812857Y43702800D02*
X49765238Y43750420D01*
X12608333Y16870181D02*
X12275000Y17346372D01*
X12036905Y16870181D02*
X12036905Y17870181D01*
X12036905Y17870181D02*
X12417857Y17870181D01*
X12417857Y17870181D02*
X12513095Y17822562D01*
X12513095Y17822562D02*
X12560714Y17774943D01*
X12560714Y17774943D02*
X12608333Y17679705D01*
X12608333Y17679705D02*
X12608333Y17536848D01*
X12608333Y17536848D02*
X12560714Y17441610D01*
X12560714Y17441610D02*
X12513095Y17393991D01*
X12513095Y17393991D02*
X12417857Y17346372D01*
X12417857Y17346372D02*
X12036905Y17346372D01*
X12941667Y17870181D02*
X13560714Y17870181D01*
X13560714Y17870181D02*
X13227381Y17489229D01*
X13227381Y17489229D02*
X13370238Y17489229D01*
X13370238Y17489229D02*
X13465476Y17441610D01*
X13465476Y17441610D02*
X13513095Y17393991D01*
X13513095Y17393991D02*
X13560714Y17298753D01*
X13560714Y17298753D02*
X13560714Y17060658D01*
X13560714Y17060658D02*
X13513095Y16965420D01*
X13513095Y16965420D02*
X13465476Y16917800D01*
X13465476Y16917800D02*
X13370238Y16870181D01*
X13370238Y16870181D02*
X13084524Y16870181D01*
X13084524Y16870181D02*
X12989286Y16917800D01*
X12989286Y16917800D02*
X12941667Y16965420D01*
X10858333Y15470181D02*
X10525000Y15946372D01*
X10286905Y15470181D02*
X10286905Y16470181D01*
X10286905Y16470181D02*
X10667857Y16470181D01*
X10667857Y16470181D02*
X10763095Y16422562D01*
X10763095Y16422562D02*
X10810714Y16374943D01*
X10810714Y16374943D02*
X10858333Y16279705D01*
X10858333Y16279705D02*
X10858333Y16136848D01*
X10858333Y16136848D02*
X10810714Y16041610D01*
X10810714Y16041610D02*
X10763095Y15993991D01*
X10763095Y15993991D02*
X10667857Y15946372D01*
X10667857Y15946372D02*
X10286905Y15946372D01*
X11810714Y15470181D02*
X11239286Y15470181D01*
X11525000Y15470181D02*
X11525000Y16470181D01*
X11525000Y16470181D02*
X11429762Y16327324D01*
X11429762Y16327324D02*
X11334524Y16232086D01*
X11334524Y16232086D02*
X11239286Y16184467D01*
X18074819Y10528096D02*
X18884342Y10528096D01*
X18884342Y10528096D02*
X18979580Y10575715D01*
X18979580Y10575715D02*
X19027200Y10623334D01*
X19027200Y10623334D02*
X19074819Y10718572D01*
X19074819Y10718572D02*
X19074819Y10909048D01*
X19074819Y10909048D02*
X19027200Y11004286D01*
X19027200Y11004286D02*
X18979580Y11051905D01*
X18979580Y11051905D02*
X18884342Y11099524D01*
X18884342Y11099524D02*
X18074819Y11099524D01*
X19074819Y12099524D02*
X19074819Y11528096D01*
X19074819Y11813810D02*
X18074819Y11813810D01*
X18074819Y11813810D02*
X18217676Y11718572D01*
X18217676Y11718572D02*
X18312914Y11623334D01*
X18312914Y11623334D02*
X18360533Y11528096D01*
X14558333Y18320181D02*
X14225000Y18796372D01*
X13986905Y18320181D02*
X13986905Y19320181D01*
X13986905Y19320181D02*
X14367857Y19320181D01*
X14367857Y19320181D02*
X14463095Y19272562D01*
X14463095Y19272562D02*
X14510714Y19224943D01*
X14510714Y19224943D02*
X14558333Y19129705D01*
X14558333Y19129705D02*
X14558333Y18986848D01*
X14558333Y18986848D02*
X14510714Y18891610D01*
X14510714Y18891610D02*
X14463095Y18843991D01*
X14463095Y18843991D02*
X14367857Y18796372D01*
X14367857Y18796372D02*
X13986905Y18796372D01*
X14939286Y19224943D02*
X14986905Y19272562D01*
X14986905Y19272562D02*
X15082143Y19320181D01*
X15082143Y19320181D02*
X15320238Y19320181D01*
X15320238Y19320181D02*
X15415476Y19272562D01*
X15415476Y19272562D02*
X15463095Y19224943D01*
X15463095Y19224943D02*
X15510714Y19129705D01*
X15510714Y19129705D02*
X15510714Y19034467D01*
X15510714Y19034467D02*
X15463095Y18891610D01*
X15463095Y18891610D02*
X14891667Y18320181D01*
X14891667Y18320181D02*
X15510714Y18320181D01*
X10669580Y11133334D02*
X10717200Y11085715D01*
X10717200Y11085715D02*
X10764819Y10942858D01*
X10764819Y10942858D02*
X10764819Y10847620D01*
X10764819Y10847620D02*
X10717200Y10704763D01*
X10717200Y10704763D02*
X10621961Y10609525D01*
X10621961Y10609525D02*
X10526723Y10561906D01*
X10526723Y10561906D02*
X10336247Y10514287D01*
X10336247Y10514287D02*
X10193390Y10514287D01*
X10193390Y10514287D02*
X10002914Y10561906D01*
X10002914Y10561906D02*
X9907676Y10609525D01*
X9907676Y10609525D02*
X9812438Y10704763D01*
X9812438Y10704763D02*
X9764819Y10847620D01*
X9764819Y10847620D02*
X9764819Y10942858D01*
X9764819Y10942858D02*
X9812438Y11085715D01*
X9812438Y11085715D02*
X9860057Y11133334D01*
X10764819Y12085715D02*
X10764819Y11514287D01*
X10764819Y11800001D02*
X9764819Y11800001D01*
X9764819Y11800001D02*
X9907676Y11704763D01*
X9907676Y11704763D02*
X10002914Y11609525D01*
X10002914Y11609525D02*
X10050533Y11514287D01*
D13*
%TO.C,J4*%
X81083962Y15407386D02*
X82473962Y15407386D01*
X82473962Y15977386D02*
X82473962Y15407386D01*
X82473962Y15977386D02*
X87773962Y15977386D01*
X82473962Y13787386D02*
X82473962Y12867386D01*
X82473962Y11247386D02*
X82473962Y10677386D01*
X82473962Y10677386D02*
X87773962Y10677386D01*
X87773962Y15977386D02*
X87773962Y15407386D01*
X87773962Y13787386D02*
X87773962Y12867386D01*
X87773962Y11247386D02*
X87773962Y10677386D01*
%TO.C,J5*%
X51450000Y31400000D02*
X51450000Y30900000D01*
%TO.C,R3*%
X15046359Y17380000D02*
X15353641Y17380000D01*
X15046359Y16620000D02*
X15353641Y16620000D01*
%TO.C,R1*%
X13146359Y16280000D02*
X13453641Y16280000D01*
X13146359Y15520000D02*
X13453641Y15520000D01*
%TO.C,U1*%
X12640000Y13360000D02*
X12735000Y13360000D01*
X12640000Y9240000D02*
X12640000Y13360000D01*
X12735000Y9240000D02*
X12640000Y9240000D01*
X17665000Y13360000D02*
X17760000Y13360000D01*
X17760000Y13360000D02*
X17760000Y9240000D01*
X17760000Y9240000D02*
X17665000Y9240000D01*
X12730000Y8700000D02*
X12400000Y8460000D01*
X12400000Y8940000D01*
X12730000Y8700000D01*
G36*
X12730000Y8700000D02*
G01*
X12400000Y8460000D01*
X12400000Y8940000D01*
X12730000Y8700000D01*
G37*
%TO.C,R2*%
X16446359Y18580000D02*
X16753641Y18580000D01*
X16446359Y17820000D02*
X16753641Y17820000D01*
D10*
%TO.C,kibuzzard-69C29391*%
G36*
X42844521Y6729795D02*
G01*
X42877397Y6634503D01*
X42889726Y6490411D01*
X42523973Y6490411D01*
X42541438Y6638356D01*
X42577397Y6732877D01*
X42634418Y6783733D01*
X42715068Y6800685D01*
X42844521Y6729795D01*
G37*
G36*
X46954110Y4161301D02*
G01*
X46986986Y4066010D01*
X46999315Y3921918D01*
X46633562Y3921918D01*
X46651027Y4069863D01*
X46686986Y4164384D01*
X46744007Y4215240D01*
X46824658Y4232192D01*
X46954110Y4161301D01*
G37*
G36*
X52091096Y6729795D02*
G01*
X52123973Y6634503D01*
X52136301Y6490411D01*
X51770548Y6490411D01*
X51788014Y6638356D01*
X51823973Y6732877D01*
X51880993Y6783733D01*
X51961644Y6800685D01*
X52091096Y6729795D01*
G37*
G36*
X36612072Y6772688D02*
G01*
X36679110Y6707192D01*
X36718408Y6588784D01*
X36731507Y6408219D01*
X36719307Y6238313D01*
X36682705Y6116952D01*
X36621704Y6044135D01*
X36536301Y6019863D01*
X36382192Y6067123D01*
X36382192Y6771918D01*
X36515753Y6794521D01*
X36612072Y6772688D01*
G37*
G36*
X48950856Y6777055D02*
G01*
X49025342Y6724658D01*
X49025342Y6040411D01*
X48891781Y6013699D01*
X48796747Y6035788D01*
X48729452Y6102055D01*
X48689384Y6222774D01*
X48676027Y6408219D01*
X48687072Y6588784D01*
X48720205Y6707192D01*
X48775942Y6772688D01*
X48854795Y6794521D01*
X48950856Y6777055D01*
G37*
G36*
X47937072Y6774229D02*
G01*
X47998973Y6713356D01*
X48033647Y6596490D01*
X48045205Y6408219D01*
X48033647Y6219949D01*
X47998973Y6103082D01*
X47937072Y6042209D01*
X47843836Y6021918D01*
X47750599Y6042209D01*
X47688699Y6103082D01*
X47654024Y6219949D01*
X47642466Y6408219D01*
X47654024Y6596490D01*
X47688699Y6713356D01*
X47750599Y6774229D01*
X47843836Y6794521D01*
X47937072Y6774229D01*
G37*
G36*
X43840582Y4615668D02*
G01*
X43913014Y4520890D01*
X43943836Y4413014D01*
X43962329Y4257877D01*
X43968493Y4055479D01*
X43962329Y3853082D01*
X43943836Y3697945D01*
X43913014Y3590068D01*
X43840582Y3495291D01*
X43734247Y3463699D01*
X43627911Y3495291D01*
X43555479Y3590068D01*
X43524658Y3697945D01*
X43506164Y3853082D01*
X43500000Y4055479D01*
X43506164Y4257877D01*
X43524658Y4413014D01*
X43555479Y4520890D01*
X43627911Y4615668D01*
X43734247Y4647260D01*
X43840582Y4615668D01*
G37*
G36*
X55748630Y2428767D02*
G01*
X55577397Y2428767D01*
X52008904Y2428767D01*
X50913699Y2428767D01*
X49989041Y2428767D01*
X49056164Y2428767D01*
X47987671Y2428767D01*
X46871918Y2428767D01*
X46179452Y2428767D01*
X45234247Y2428767D01*
X43734247Y2428767D01*
X42762329Y2428767D01*
X41371233Y2428767D01*
X39464384Y2428767D01*
X38997945Y2428767D01*
X37970548Y2428767D01*
X37668493Y2428767D01*
X36912329Y2428767D01*
X35447260Y2428767D01*
X35118493Y2428767D01*
X33748630Y2428767D01*
X33748630Y3547945D01*
X35118493Y3547945D01*
X35118493Y3350685D01*
X35279795Y3301370D01*
X35447260Y3284932D01*
X35588527Y3297489D01*
X35704110Y3335160D01*
X35794007Y3397945D01*
X35858219Y3485845D01*
X35896747Y3598858D01*
X35909589Y3736986D01*
X35892894Y3881336D01*
X35842808Y3991781D01*
X35759332Y4068322D01*
X35642466Y4110959D01*
X35642466Y4113014D01*
X35750342Y4165283D01*
X35827397Y4244007D01*
X35873630Y4349187D01*
X35889041Y4480822D01*
X35878767Y4538664D01*
X35863356Y4625428D01*
X35797179Y4719178D01*
X36172603Y4719178D01*
X36172603Y4526027D01*
X36288356Y4593379D01*
X36394521Y4633790D01*
X36491096Y4647260D01*
X36625685Y4591781D01*
X36658818Y4519863D01*
X36669863Y4415068D01*
X36659715Y4302474D01*
X36629270Y4183086D01*
X36578529Y4056905D01*
X36507492Y3923931D01*
X36416159Y3784163D01*
X36304529Y3637601D01*
X36172603Y3484247D01*
X36172603Y3305479D01*
X36912329Y3305479D01*
X36912329Y3484247D01*
X36410959Y3484247D01*
X36410959Y3488356D01*
X36531485Y3631935D01*
X36634161Y3766781D01*
X36718985Y3892894D01*
X36785959Y4010274D01*
X36814893Y4076027D01*
X37148630Y4076027D01*
X37156753Y3890614D01*
X37181122Y3729923D01*
X37221736Y3593953D01*
X37278596Y3482705D01*
X37351702Y3396179D01*
X37441053Y3334375D01*
X37546650Y3297292D01*
X37668493Y3284932D01*
X37805651Y3297774D01*
X37830410Y3305479D01*
X38217123Y3305479D01*
X38443151Y3305479D01*
X38443151Y4143836D01*
X38526884Y4205479D01*
X38621918Y4226027D01*
X38747260Y4174658D01*
X38771918Y4096062D01*
X38780137Y3963014D01*
X38778082Y3305479D01*
X38997945Y3305479D01*
X38997945Y3654795D01*
X39464384Y3654795D01*
X39464384Y3305479D01*
X39793151Y3305479D01*
X39793151Y3654795D01*
X39612329Y3654795D01*
X39464384Y3654795D01*
X38997945Y3654795D01*
X38997945Y3997945D01*
X41371233Y3997945D01*
X41371233Y3827397D01*
X41987671Y3827397D01*
X41987671Y3997945D01*
X41794521Y3997945D01*
X41371233Y3997945D01*
X38997945Y3997945D01*
X38997945Y4020548D01*
X38994070Y4055479D01*
X43282192Y4055479D01*
X43287785Y3875571D01*
X43304566Y3722146D01*
X43332534Y3595205D01*
X43394435Y3449829D01*
X43479452Y3354795D01*
X43591438Y3302397D01*
X43734247Y3284932D01*
X43877055Y3302397D01*
X43989041Y3354795D01*
X44074058Y3449829D01*
X44135959Y3595205D01*
X44163927Y3722146D01*
X44180708Y3875571D01*
X44186301Y4055479D01*
X44180708Y4235388D01*
X44171843Y4316438D01*
X44289041Y4316438D01*
X44289041Y3305479D01*
X44504795Y3305479D01*
X44504795Y4197260D01*
X44586986Y4226027D01*
X44646575Y4204452D01*
X44663014Y4127397D01*
X44663014Y3305479D01*
X44868493Y3305479D01*
X44868493Y4197260D01*
X44952740Y4226027D01*
X45010274Y4205479D01*
X45026712Y4127397D01*
X45026712Y3305479D01*
X45234247Y3305479D01*
X45234247Y4106849D01*
X45220120Y4249401D01*
X45191322Y4308219D01*
X45398630Y4308219D01*
X45398630Y3305479D01*
X45624658Y3305479D01*
X45624658Y4180822D01*
X45764384Y4226027D01*
X45916438Y4184932D01*
X45957534Y4034932D01*
X45957534Y3305479D01*
X46179452Y3305479D01*
X46179452Y3839726D01*
X46399315Y3839726D01*
X46408960Y3692536D01*
X46437895Y3567990D01*
X46486120Y3466089D01*
X46553634Y3386833D01*
X46640439Y3330221D01*
X46746533Y3296254D01*
X46871918Y3284932D01*
X47015240Y3297774D01*
X47165753Y3336301D01*
X47165753Y3506849D01*
X47025000Y3465240D01*
X46898630Y3451370D01*
X46788442Y3469092D01*
X46708562Y3522260D01*
X46657449Y3617551D01*
X46633562Y3761644D01*
X47217123Y3761644D01*
X47221233Y3843836D01*
X47210502Y4019292D01*
X47178311Y4159361D01*
X47124658Y4264041D01*
X47052895Y4332877D01*
X47443151Y4332877D01*
X47443151Y4166438D01*
X47654795Y4166438D01*
X47654795Y3613699D01*
X47673031Y3454452D01*
X47727740Y3354795D01*
X47829195Y3302397D01*
X47987671Y3284932D01*
X48101199Y3291096D01*
X48203425Y3309589D01*
X48203425Y3496575D01*
X48115582Y3473459D01*
X48028767Y3465753D01*
X47905479Y3499658D01*
X47878767Y3654795D01*
X47878767Y4166438D01*
X48223973Y4166438D01*
X48223973Y4332877D01*
X47878767Y4332877D01*
X47878767Y4373973D01*
X48552740Y4373973D01*
X48552740Y4207534D01*
X48826027Y4207534D01*
X48826027Y3305479D01*
X49056164Y3305479D01*
X49056164Y3839726D01*
X49502055Y3839726D01*
X49516210Y3671233D01*
X49558676Y3532877D01*
X49629452Y3424658D01*
X49726027Y3347032D01*
X49845890Y3300457D01*
X49989041Y3284932D01*
X50117979Y3297774D01*
X50241781Y3336301D01*
X50241781Y3504795D01*
X50126712Y3460103D01*
X50015753Y3445205D01*
X49898116Y3469863D01*
X49808219Y3543836D01*
X49751199Y3667123D01*
X49732192Y3839726D01*
X49748630Y4007449D01*
X49797945Y4128425D01*
X49876541Y4201627D01*
X49980822Y4226027D01*
X50036301Y4219863D01*
X50036301Y3983562D01*
X50252055Y3983562D01*
X50252055Y4096575D01*
X50550000Y4096575D01*
X50570548Y3978168D01*
X50632192Y3885959D01*
X50742637Y3814298D01*
X50909589Y3757534D01*
X51045205Y3695890D01*
X51082192Y3593151D01*
X51034932Y3485274D01*
X50878767Y3451370D01*
X50724144Y3471404D01*
X50560274Y3531507D01*
X50560274Y3350685D01*
X50669863Y3314155D01*
X50787671Y3292237D01*
X50913699Y3284932D01*
X51081421Y3304966D01*
X51206507Y3365068D01*
X51284332Y3462158D01*
X51310274Y3593151D01*
X51306164Y3620477D01*
X51290497Y3724658D01*
X51231164Y3819178D01*
X51117380Y3889041D01*
X50934247Y3946575D01*
X50811986Y4004110D01*
X50776027Y4096575D01*
X50820719Y4196747D01*
X50954795Y4230137D01*
X51110959Y4217295D01*
X51275342Y4178767D01*
X51275342Y4349315D01*
X51168037Y4374429D01*
X51054338Y4389498D01*
X50934247Y4394521D01*
X50766781Y4375257D01*
X50646575Y4317466D01*
X50574144Y4223716D01*
X50550000Y4096575D01*
X50252055Y4096575D01*
X50252055Y4353425D01*
X50125685Y4384247D01*
X49984932Y4394521D01*
X49919178Y4388709D01*
X49856821Y4383198D01*
X49748420Y4349231D01*
X49659729Y4292620D01*
X49590746Y4213363D01*
X49541473Y4111462D01*
X49511909Y3986916D01*
X49502055Y3839726D01*
X49056164Y3839726D01*
X49056164Y4373973D01*
X48784932Y4373973D01*
X48552740Y4373973D01*
X47878767Y4373973D01*
X47878767Y4723288D01*
X47843836Y4723288D01*
X47654795Y4723288D01*
X47654795Y4332877D01*
X47443151Y4332877D01*
X47052895Y4332877D01*
X47049087Y4336530D01*
X46951142Y4380023D01*
X46830822Y4394521D01*
X46698973Y4379110D01*
X46591096Y4332877D01*
X46549315Y4294507D01*
X46507192Y4255822D01*
X46447260Y4147945D01*
X46411301Y4009247D01*
X46399315Y3839726D01*
X46179452Y3839726D01*
X46179452Y4024658D01*
X46158134Y4207021D01*
X46094178Y4318493D01*
X46018950Y4360731D01*
X45906963Y4386073D01*
X45758219Y4394521D01*
X45626027Y4384932D01*
X45506164Y4356164D01*
X45398630Y4308219D01*
X45191322Y4308219D01*
X45177740Y4335959D01*
X45096318Y4379880D01*
X44965068Y4394521D01*
X44905479Y4387393D01*
X44857705Y4381678D01*
X44761644Y4343151D01*
X44683048Y4381678D01*
X44578767Y4394521D01*
X44425171Y4375000D01*
X44289041Y4316438D01*
X44171843Y4316438D01*
X44163927Y4388813D01*
X44135959Y4515753D01*
X44074058Y4661130D01*
X43989041Y4756164D01*
X43877055Y4808562D01*
X43734247Y4826027D01*
X43721918Y4824520D01*
X43591438Y4808562D01*
X43479452Y4756164D01*
X43394435Y4661130D01*
X43332534Y4515753D01*
X43304566Y4388813D01*
X43287785Y4235388D01*
X43282192Y4055479D01*
X38994070Y4055479D01*
X38978938Y4191866D01*
X38921918Y4307192D01*
X38823288Y4372688D01*
X38679452Y4394521D01*
X38568493Y4380356D01*
X38558733Y4379110D01*
X38443151Y4332877D01*
X38443151Y4846575D01*
X38217123Y4846575D01*
X38217123Y3305479D01*
X37830410Y3305479D01*
X37929452Y3336301D01*
X37929452Y3525342D01*
X37812329Y3477568D01*
X37703425Y3461644D01*
X37602968Y3478710D01*
X37520776Y3529909D01*
X37456849Y3615240D01*
X37411187Y3734703D01*
X37383790Y3888299D01*
X37374658Y4076027D01*
X37382934Y4249943D01*
X37407763Y4392237D01*
X37449144Y4502911D01*
X37507078Y4581963D01*
X37581564Y4629395D01*
X37672603Y4645205D01*
X37719863Y4636986D01*
X37719863Y4316438D01*
X37939726Y4316438D01*
X37939726Y4780822D01*
X37808733Y4814726D01*
X37662329Y4826027D01*
X37541931Y4814309D01*
X37437586Y4779152D01*
X37349294Y4720559D01*
X37277055Y4638527D01*
X37220869Y4533059D01*
X37180736Y4404152D01*
X37156657Y4251809D01*
X37148630Y4076027D01*
X36814893Y4076027D01*
X36850457Y4156849D01*
X36889155Y4295205D01*
X36902055Y4425342D01*
X36878682Y4598716D01*
X36808562Y4724315D01*
X36694264Y4800599D01*
X36538356Y4826027D01*
X36408219Y4814155D01*
X36382192Y4806552D01*
X36286301Y4778539D01*
X36172603Y4719178D01*
X35797179Y4719178D01*
X35786301Y4734589D01*
X35661473Y4803168D01*
X35492466Y4826027D01*
X35381050Y4818037D01*
X35265982Y4794064D01*
X35147260Y4754110D01*
X35147260Y4563014D01*
X35306507Y4627740D01*
X35451370Y4649315D01*
X35570091Y4627397D01*
X35641324Y4561644D01*
X35665068Y4452055D01*
X35646575Y4336473D01*
X35591096Y4256849D01*
X35494007Y4210616D01*
X35350685Y4195205D01*
X35309589Y4195205D01*
X35309589Y4014384D01*
X35350685Y4014384D01*
X35504795Y3998716D01*
X35605479Y3951712D01*
X35660959Y3869264D01*
X35679452Y3747260D01*
X35663271Y3623202D01*
X35614726Y3534589D01*
X35533818Y3481421D01*
X35420548Y3463699D01*
X35267979Y3484760D01*
X35118493Y3547945D01*
X33748630Y3547945D01*
X33748630Y4867123D01*
X48784932Y4867123D01*
X48784932Y4610274D01*
X49056164Y4610274D01*
X49056164Y4867123D01*
X48902055Y4867123D01*
X48784932Y4867123D01*
X33748630Y4867123D01*
X33748630Y5873973D01*
X35159589Y5873973D01*
X35878767Y5873973D01*
X35878767Y6052740D01*
X35389726Y6052740D01*
X35389726Y6593151D01*
X35858219Y6593151D01*
X35858219Y6767808D01*
X35389726Y6767808D01*
X35389726Y6897260D01*
X36156164Y6897260D01*
X36156164Y5421918D01*
X36382192Y5421918D01*
X36382192Y5894521D01*
X36469521Y5863699D01*
X36563014Y5853425D01*
X36683562Y5868836D01*
X36694521Y5873973D01*
X37189726Y5873973D01*
X37415753Y5873973D01*
X37415753Y6712329D01*
X37499486Y6773973D01*
X37594521Y6794521D01*
X37719863Y6743151D01*
X37744521Y6664555D01*
X37752740Y6531507D01*
X37750685Y5873973D01*
X37970548Y5873973D01*
X37970548Y6589041D01*
X37951541Y6760360D01*
X37894521Y6875685D01*
X37795890Y6941182D01*
X37787431Y6942466D01*
X38155479Y6942466D01*
X38510959Y5894521D01*
X38342466Y5421918D01*
X38568493Y5421918D01*
X38969997Y6665068D01*
X39248630Y6665068D01*
X39269178Y6546661D01*
X39330822Y6454452D01*
X39441267Y6382791D01*
X39608219Y6326027D01*
X39743836Y6264384D01*
X39780822Y6161644D01*
X39733562Y6053767D01*
X39577397Y6019863D01*
X39422774Y6039897D01*
X39258904Y6100000D01*
X39258904Y5919178D01*
X39368493Y5882648D01*
X39486301Y5860731D01*
X39612329Y5853425D01*
X39780051Y5873459D01*
X39905137Y5933562D01*
X39982962Y6030651D01*
X40008904Y6161644D01*
X39989127Y6293151D01*
X39929795Y6387671D01*
X39816010Y6457534D01*
X39632877Y6515068D01*
X39510616Y6572603D01*
X39474658Y6665068D01*
X39519349Y6765240D01*
X39653425Y6798630D01*
X39809589Y6785788D01*
X39973973Y6747260D01*
X39973973Y6917808D01*
X39866667Y6942922D01*
X39752968Y6957991D01*
X39632877Y6963014D01*
X39465411Y6943750D01*
X39345205Y6885959D01*
X39272774Y6792209D01*
X39248630Y6665068D01*
X38969997Y6665068D01*
X39059589Y6942466D01*
X38825342Y6942466D01*
X38611644Y6161644D01*
X38607534Y6161644D01*
X38379452Y6942466D01*
X38155479Y6942466D01*
X37787431Y6942466D01*
X37652055Y6963014D01*
X37531336Y6947603D01*
X37415753Y6901370D01*
X37415753Y7195205D01*
X41258219Y7195205D01*
X41564384Y7195205D01*
X41564384Y5873973D01*
X41794521Y5873973D01*
X41794521Y6408219D01*
X42289726Y6408219D01*
X42302854Y6238699D01*
X42342237Y6100000D01*
X42407877Y5992123D01*
X42499772Y5915068D01*
X42617922Y5868836D01*
X42762329Y5853425D01*
X42905651Y5866267D01*
X43056164Y5904795D01*
X43056164Y6075342D01*
X42915411Y6033733D01*
X42789041Y6019863D01*
X42678853Y6037586D01*
X42598973Y6090753D01*
X42547860Y6186045D01*
X42523973Y6330137D01*
X43107534Y6330137D01*
X43111644Y6412329D01*
X43100913Y6587785D01*
X43083151Y6665068D01*
X43358219Y6665068D01*
X43378767Y6546661D01*
X43440411Y6454452D01*
X43550856Y6382791D01*
X43717808Y6326027D01*
X43853425Y6264384D01*
X43890411Y6161644D01*
X43843151Y6053767D01*
X43686986Y6019863D01*
X43532363Y6039897D01*
X43368493Y6100000D01*
X43368493Y5919178D01*
X43478082Y5882648D01*
X43595890Y5860731D01*
X43721918Y5853425D01*
X43889640Y5873459D01*
X44014726Y5933562D01*
X44092551Y6030651D01*
X44118493Y6161644D01*
X44098716Y6293151D01*
X44039384Y6387671D01*
X43925599Y6457534D01*
X43742466Y6515068D01*
X43620205Y6572603D01*
X43584247Y6665068D01*
X43628938Y6765240D01*
X43763014Y6798630D01*
X43919178Y6785788D01*
X44083562Y6747260D01*
X44083562Y6901370D01*
X44360959Y6901370D01*
X44360959Y6734932D01*
X44572603Y6734932D01*
X44572603Y6182192D01*
X44590839Y6022945D01*
X44645548Y5923288D01*
X44747003Y5870890D01*
X44905479Y5853425D01*
X45019007Y5859589D01*
X45098519Y5873973D01*
X46347945Y5873973D01*
X46549315Y5873973D01*
X46584247Y7147945D01*
X46590411Y7147945D01*
X46707534Y6223288D01*
X46902740Y6223288D01*
X47030137Y7147945D01*
X47032192Y7147945D01*
X47063014Y5873973D01*
X47282877Y5873973D01*
X47255799Y6408219D01*
X47412329Y6408219D01*
X47424201Y6231507D01*
X47459817Y6090411D01*
X47519178Y5984932D01*
X47602740Y5911872D01*
X47710959Y5868037D01*
X47843836Y5853425D01*
X47976712Y5868037D01*
X48084932Y5911872D01*
X48168493Y5984932D01*
X48227854Y6090411D01*
X48263470Y6231507D01*
X48275342Y6408219D01*
X48450000Y6408219D01*
X48462100Y6226370D01*
X48498402Y6083562D01*
X48558904Y5979795D01*
X48645434Y5909589D01*
X48759817Y5867466D01*
X48902055Y5853425D01*
X49029452Y5860731D01*
X49145890Y5882648D01*
X49251370Y5919178D01*
X49251370Y6213014D01*
X49518493Y6213014D01*
X49539555Y6038356D01*
X49602740Y5929452D01*
X49675342Y5887215D01*
X49780822Y5861872D01*
X49919178Y5853425D01*
X50051370Y5863014D01*
X50171233Y5891781D01*
X50278767Y5939726D01*
X50278767Y6942466D01*
X50052740Y6942466D01*
X50054795Y6063014D01*
X49915068Y6021918D01*
X49776370Y6061986D01*
X49738356Y6213014D01*
X49738356Y6942466D01*
X49518493Y6942466D01*
X49518493Y6213014D01*
X49251370Y6213014D01*
X49251370Y7207534D01*
X50525342Y7207534D01*
X50800685Y7207534D01*
X50800685Y5873973D01*
X51306164Y5873973D01*
X51306164Y6040411D01*
X51030822Y6040411D01*
X51030822Y6408219D01*
X51536301Y6408219D01*
X51545946Y6261029D01*
X51574881Y6136483D01*
X51623106Y6034582D01*
X51690621Y5955326D01*
X51777425Y5898714D01*
X51883520Y5864747D01*
X52008904Y5853425D01*
X52152226Y5866267D01*
X52302740Y5904795D01*
X52302740Y6075342D01*
X52161986Y6033733D01*
X52035616Y6019863D01*
X51925428Y6037586D01*
X51845548Y6090753D01*
X51794435Y6186045D01*
X51770548Y6330137D01*
X52354110Y6330137D01*
X52358219Y6412329D01*
X52347489Y6587785D01*
X52315297Y6727854D01*
X52261644Y6832534D01*
X52186073Y6905023D01*
X52088128Y6948516D01*
X51967808Y6963014D01*
X51835959Y6947603D01*
X51728082Y6901370D01*
X51644178Y6824315D01*
X51584247Y6716438D01*
X51548288Y6577740D01*
X51536301Y6408219D01*
X51030822Y6408219D01*
X51030822Y7373973D01*
X50525342Y7373973D01*
X50525342Y7207534D01*
X49251370Y7207534D01*
X49251370Y7415068D01*
X49025342Y7415068D01*
X49025342Y6917808D01*
X48930308Y6951712D01*
X48830137Y6963014D01*
X48712443Y6948630D01*
X48616895Y6905479D01*
X48543493Y6833562D01*
X48491553Y6728767D01*
X48460388Y6586986D01*
X48450000Y6408219D01*
X48275342Y6408219D01*
X48263470Y6584932D01*
X48227854Y6726027D01*
X48168493Y6831507D01*
X48084932Y6904566D01*
X47976712Y6948402D01*
X47843836Y6963014D01*
X47710959Y6948402D01*
X47602740Y6904566D01*
X47519178Y6831507D01*
X47459817Y6726027D01*
X47424201Y6584932D01*
X47412329Y6408219D01*
X47255799Y6408219D01*
X47206849Y7373973D01*
X46947945Y7373973D01*
X46824658Y6418493D01*
X46820548Y6418493D01*
X46695205Y7373973D01*
X46426027Y7373973D01*
X46347945Y5873973D01*
X45098519Y5873973D01*
X45121233Y5878082D01*
X45121233Y6065068D01*
X45033390Y6041952D01*
X44946575Y6034247D01*
X44823288Y6068151D01*
X44796575Y6223288D01*
X44796575Y6734932D01*
X45141781Y6734932D01*
X45141781Y6901370D01*
X44796575Y6901370D01*
X44796575Y7291781D01*
X44572603Y7291781D01*
X44572603Y6901370D01*
X44360959Y6901370D01*
X44083562Y6901370D01*
X44083562Y6917808D01*
X43976256Y6942922D01*
X43862557Y6957991D01*
X43742466Y6963014D01*
X43575000Y6943750D01*
X43454795Y6885959D01*
X43382363Y6792209D01*
X43358219Y6665068D01*
X43083151Y6665068D01*
X43068721Y6727854D01*
X43015068Y6832534D01*
X42939498Y6905023D01*
X42841553Y6948516D01*
X42721233Y6963014D01*
X42589384Y6947603D01*
X42481507Y6901370D01*
X42397603Y6824315D01*
X42337671Y6716438D01*
X42301712Y6577740D01*
X42289726Y6408219D01*
X41794521Y6408219D01*
X41794521Y7195205D01*
X42100685Y7195205D01*
X42100685Y7373973D01*
X41258219Y7373973D01*
X41258219Y7195205D01*
X37415753Y7195205D01*
X37415753Y7415068D01*
X37189726Y7415068D01*
X37189726Y5873973D01*
X36694521Y5873973D01*
X36782192Y5915068D01*
X36858904Y5992123D01*
X36913699Y6100000D01*
X36946575Y6238699D01*
X36957534Y6408219D01*
X36945548Y6588014D01*
X36909589Y6730137D01*
X36849658Y6834589D01*
X36763470Y6905936D01*
X36648744Y6948744D01*
X36505479Y6963014D01*
X36382648Y6955708D01*
X36266210Y6933790D01*
X36156164Y6897260D01*
X35389726Y6897260D01*
X35389726Y7195205D01*
X35878767Y7195205D01*
X35878767Y7373973D01*
X35159589Y7373973D01*
X35159589Y5873973D01*
X33748630Y5873973D01*
X33748630Y8271233D01*
X35118493Y8271233D01*
X55577397Y8271233D01*
X55748630Y8271233D01*
X57501370Y8271233D01*
X55748630Y2428767D01*
G37*
D13*
%TO.C,C1*%
X11340000Y11407836D02*
X11340000Y11192164D01*
X12060000Y11407836D02*
X12060000Y11192164D01*
%TD*%
M02*
