%TF.GenerationSoftware,KiCad,Pcbnew,9.0.7*%
%TF.CreationDate,2026-04-01T09:20:48+01:00*%
%TF.ProjectId,ephys-test-module-32,65706879-732d-4746-9573-742d6d6f6475,A*%
%TF.SameCoordinates,PX66ff300PY82a7440*%
%TF.FileFunction,Plated,1,2,PTH,Drill*%
%TF.FilePolarity,Positive*%
%FSLAX46Y46*%
G04 Gerber Fmt 4.6, Leading zero omitted, Abs format (unit mm)*
G04 Created by KiCad (PCBNEW 9.0.7) date 2026-04-01 09:20:48*
%MOMM*%
%LPD*%
G01*
G04 APERTURE LIST*
%TA.AperFunction,ViaDrill*%
%ADD10C,0.200000*%
%TD*%
G04 APERTURE END LIST*
D10*
X2350000Y2925000D03*
X3425000Y17625000D03*
X5100000Y42600000D03*
X5825000Y31425000D03*
X6730000Y56610000D03*
X10100000Y22200000D03*
X11700000Y13300000D03*
X11700000Y12800000D03*
X12125000Y15775000D03*
X13912500Y17562500D03*
X14400000Y18050000D03*
X14555000Y35146000D03*
X14810000Y50640000D03*
X17095000Y19017000D03*
X17095000Y15334000D03*
X19700000Y21600000D03*
X21000000Y44600000D03*
X21000000Y30000000D03*
X25600000Y20000000D03*
X27000000Y56200000D03*
X29250000Y1975000D03*
X30700000Y30200000D03*
X33400000Y44500000D03*
X36650000Y13050000D03*
X40100000Y24100000D03*
X40400000Y55900000D03*
X43275000Y900000D03*
X45400000Y45100000D03*
X46559000Y38829000D03*
X46559000Y37525000D03*
X46559000Y36289000D03*
X46559000Y35019000D03*
X46559000Y33749000D03*
X46559000Y32479000D03*
X46642000Y40099000D03*
X46686000Y41369000D03*
X47259000Y39464000D03*
X47259000Y38194000D03*
X47259000Y36924000D03*
X47259000Y35654000D03*
X47259000Y34384000D03*
X47259000Y33114000D03*
X47259000Y31844000D03*
X47389000Y40743000D03*
X49100000Y42950000D03*
X49450000Y30100000D03*
X50750000Y42766000D03*
X50750000Y30447000D03*
X51400000Y23800000D03*
X52670000Y32470000D03*
X52800000Y41369000D03*
X52800000Y40099000D03*
X52800000Y38829000D03*
X52800000Y37559000D03*
X52800000Y36289000D03*
X52800000Y35019000D03*
X52800000Y33749000D03*
X53417000Y33114000D03*
X53418889Y31819070D03*
X53461610Y39375000D03*
X53480926Y34414181D03*
X53500000Y40734000D03*
X53500000Y38194000D03*
X53500000Y35654000D03*
X53500678Y36917199D03*
X53900000Y44500000D03*
X58475000Y29425000D03*
X63650000Y12700000D03*
X64150000Y20600000D03*
X66067445Y56778348D03*
X66500000Y44600000D03*
X67300000Y30200000D03*
X68075000Y1250000D03*
X76450000Y18900000D03*
X76900000Y56800000D03*
X79500000Y30200000D03*
X79833000Y52037000D03*
X79850000Y23000000D03*
X82150000Y16200000D03*
X84913000Y44417000D03*
X85040000Y37305000D03*
X90501000Y52164000D03*
X92700000Y17800000D03*
X93900000Y2250000D03*
X94900000Y45900000D03*
X95000000Y56100000D03*
X95200000Y29500000D03*
X98600000Y12350000D03*
M02*
