%TF.GenerationSoftware,KiCad,Pcbnew,9.0.7*%
%TF.CreationDate,2026-04-01T10:03:07+01:00*%
%TF.ProjectId,ephys-test-module-32,65706879-732d-4746-9573-742d6d6f6475,A*%
%TF.SameCoordinates,PX66ff300PY82a7440*%
%TF.FileFunction,Legend,Bot*%
%TF.FilePolarity,Positive*%
%FSLAX46Y46*%
G04 Gerber Fmt 4.6, Leading zero omitted, Abs format (unit mm)*
G04 Created by KiCad (PCBNEW 9.0.7) date 2026-04-01 10:03:07*
%MOMM*%
%LPD*%
G01*
G04 APERTURE LIST*
%ADD10C,0.200000*%
%ADD11C,0.150000*%
%ADD12C,0.120000*%
%ADD13C,0.100000*%
G04 APERTURE END LIST*
D10*
X24641041Y13983996D02*
X25074374Y14603043D01*
X25383898Y13983996D02*
X25383898Y15283996D01*
X25383898Y15283996D02*
X24888660Y15283996D01*
X24888660Y15283996D02*
X24764850Y15222091D01*
X24764850Y15222091D02*
X24702945Y15160186D01*
X24702945Y15160186D02*
X24641041Y15036377D01*
X24641041Y15036377D02*
X24641041Y14850662D01*
X24641041Y14850662D02*
X24702945Y14726853D01*
X24702945Y14726853D02*
X24764850Y14664948D01*
X24764850Y14664948D02*
X24888660Y14603043D01*
X24888660Y14603043D02*
X25383898Y14603043D01*
X23588660Y14045900D02*
X23712469Y13983996D01*
X23712469Y13983996D02*
X23960088Y13983996D01*
X23960088Y13983996D02*
X24083898Y14045900D01*
X24083898Y14045900D02*
X24145802Y14169710D01*
X24145802Y14169710D02*
X24145802Y14664948D01*
X24145802Y14664948D02*
X24083898Y14788758D01*
X24083898Y14788758D02*
X23960088Y14850662D01*
X23960088Y14850662D02*
X23712469Y14850662D01*
X23712469Y14850662D02*
X23588660Y14788758D01*
X23588660Y14788758D02*
X23526755Y14664948D01*
X23526755Y14664948D02*
X23526755Y14541139D01*
X23526755Y14541139D02*
X24145802Y14417329D01*
X23093421Y14850662D02*
X22783897Y13983996D01*
X22783897Y13983996D02*
X22474374Y14850662D01*
X21979136Y14107805D02*
X21917231Y14045900D01*
X21917231Y14045900D02*
X21979136Y13983996D01*
X21979136Y13983996D02*
X22041040Y14045900D01*
X22041040Y14045900D02*
X21979136Y14107805D01*
X21979136Y14107805D02*
X21979136Y13983996D01*
X19936278Y14664948D02*
X19750564Y14603043D01*
X19750564Y14603043D02*
X19688659Y14541139D01*
X19688659Y14541139D02*
X19626755Y14417329D01*
X19626755Y14417329D02*
X19626755Y14231615D01*
X19626755Y14231615D02*
X19688659Y14107805D01*
X19688659Y14107805D02*
X19750564Y14045900D01*
X19750564Y14045900D02*
X19874374Y13983996D01*
X19874374Y13983996D02*
X20369612Y13983996D01*
X20369612Y13983996D02*
X20369612Y15283996D01*
X20369612Y15283996D02*
X19936278Y15283996D01*
X19936278Y15283996D02*
X19812469Y15222091D01*
X19812469Y15222091D02*
X19750564Y15160186D01*
X19750564Y15160186D02*
X19688659Y15036377D01*
X19688659Y15036377D02*
X19688659Y14912567D01*
X19688659Y14912567D02*
X19750564Y14788758D01*
X19750564Y14788758D02*
X19812469Y14726853D01*
X19812469Y14726853D02*
X19936278Y14664948D01*
X19936278Y14664948D02*
X20369612Y14664948D01*
D11*
X15363333Y57205181D02*
X15363333Y56490896D01*
X15363333Y56490896D02*
X15410952Y56348039D01*
X15410952Y56348039D02*
X15506190Y56252800D01*
X15506190Y56252800D02*
X15649047Y56205181D01*
X15649047Y56205181D02*
X15744285Y56205181D01*
X14934761Y57109943D02*
X14887142Y57157562D01*
X14887142Y57157562D02*
X14791904Y57205181D01*
X14791904Y57205181D02*
X14553809Y57205181D01*
X14553809Y57205181D02*
X14458571Y57157562D01*
X14458571Y57157562D02*
X14410952Y57109943D01*
X14410952Y57109943D02*
X14363333Y57014705D01*
X14363333Y57014705D02*
X14363333Y56919467D01*
X14363333Y56919467D02*
X14410952Y56776610D01*
X14410952Y56776610D02*
X14982380Y56205181D01*
X14982380Y56205181D02*
X14363333Y56205181D01*
X41015476Y38570181D02*
X41348809Y39046372D01*
X41586904Y38570181D02*
X41586904Y39570181D01*
X41586904Y39570181D02*
X41205952Y39570181D01*
X41205952Y39570181D02*
X41110714Y39522562D01*
X41110714Y39522562D02*
X41063095Y39474943D01*
X41063095Y39474943D02*
X41015476Y39379705D01*
X41015476Y39379705D02*
X41015476Y39236848D01*
X41015476Y39236848D02*
X41063095Y39141610D01*
X41063095Y39141610D02*
X41110714Y39093991D01*
X41110714Y39093991D02*
X41205952Y39046372D01*
X41205952Y39046372D02*
X41586904Y39046372D01*
X40586904Y38570181D02*
X40586904Y39570181D01*
X40586904Y39570181D02*
X40015476Y38570181D01*
X40015476Y38570181D02*
X40015476Y39570181D01*
X39634523Y39570181D02*
X39015476Y39570181D01*
X39015476Y39570181D02*
X39348809Y39189229D01*
X39348809Y39189229D02*
X39205952Y39189229D01*
X39205952Y39189229D02*
X39110714Y39141610D01*
X39110714Y39141610D02*
X39063095Y39093991D01*
X39063095Y39093991D02*
X39015476Y38998753D01*
X39015476Y38998753D02*
X39015476Y38760658D01*
X39015476Y38760658D02*
X39063095Y38665420D01*
X39063095Y38665420D02*
X39110714Y38617800D01*
X39110714Y38617800D02*
X39205952Y38570181D01*
X39205952Y38570181D02*
X39491666Y38570181D01*
X39491666Y38570181D02*
X39586904Y38617800D01*
X39586904Y38617800D02*
X39634523Y38665420D01*
X60190476Y33720181D02*
X60523809Y34196372D01*
X60761904Y33720181D02*
X60761904Y34720181D01*
X60761904Y34720181D02*
X60380952Y34720181D01*
X60380952Y34720181D02*
X60285714Y34672562D01*
X60285714Y34672562D02*
X60238095Y34624943D01*
X60238095Y34624943D02*
X60190476Y34529705D01*
X60190476Y34529705D02*
X60190476Y34386848D01*
X60190476Y34386848D02*
X60238095Y34291610D01*
X60238095Y34291610D02*
X60285714Y34243991D01*
X60285714Y34243991D02*
X60380952Y34196372D01*
X60380952Y34196372D02*
X60761904Y34196372D01*
X59761904Y33720181D02*
X59761904Y34720181D01*
X59761904Y34720181D02*
X59190476Y33720181D01*
X59190476Y33720181D02*
X59190476Y34720181D01*
X58761904Y34624943D02*
X58714285Y34672562D01*
X58714285Y34672562D02*
X58619047Y34720181D01*
X58619047Y34720181D02*
X58380952Y34720181D01*
X58380952Y34720181D02*
X58285714Y34672562D01*
X58285714Y34672562D02*
X58238095Y34624943D01*
X58238095Y34624943D02*
X58190476Y34529705D01*
X58190476Y34529705D02*
X58190476Y34434467D01*
X58190476Y34434467D02*
X58238095Y34291610D01*
X58238095Y34291610D02*
X58809523Y33720181D01*
X58809523Y33720181D02*
X58190476Y33720181D01*
X59990476Y38670181D02*
X60323809Y39146372D01*
X60561904Y38670181D02*
X60561904Y39670181D01*
X60561904Y39670181D02*
X60180952Y39670181D01*
X60180952Y39670181D02*
X60085714Y39622562D01*
X60085714Y39622562D02*
X60038095Y39574943D01*
X60038095Y39574943D02*
X59990476Y39479705D01*
X59990476Y39479705D02*
X59990476Y39336848D01*
X59990476Y39336848D02*
X60038095Y39241610D01*
X60038095Y39241610D02*
X60085714Y39193991D01*
X60085714Y39193991D02*
X60180952Y39146372D01*
X60180952Y39146372D02*
X60561904Y39146372D01*
X59561904Y38670181D02*
X59561904Y39670181D01*
X59561904Y39670181D02*
X58990476Y38670181D01*
X58990476Y38670181D02*
X58990476Y39670181D01*
X58085714Y39336848D02*
X58085714Y38670181D01*
X58323809Y39717800D02*
X58561904Y39003515D01*
X58561904Y39003515D02*
X57942857Y39003515D01*
X85783333Y57285181D02*
X85783333Y56570896D01*
X85783333Y56570896D02*
X85830952Y56428039D01*
X85830952Y56428039D02*
X85926190Y56332800D01*
X85926190Y56332800D02*
X86069047Y56285181D01*
X86069047Y56285181D02*
X86164285Y56285181D01*
X85402380Y57285181D02*
X84783333Y57285181D01*
X84783333Y57285181D02*
X85116666Y56904229D01*
X85116666Y56904229D02*
X84973809Y56904229D01*
X84973809Y56904229D02*
X84878571Y56856610D01*
X84878571Y56856610D02*
X84830952Y56808991D01*
X84830952Y56808991D02*
X84783333Y56713753D01*
X84783333Y56713753D02*
X84783333Y56475658D01*
X84783333Y56475658D02*
X84830952Y56380420D01*
X84830952Y56380420D02*
X84878571Y56332800D01*
X84878571Y56332800D02*
X84973809Y56285181D01*
X84973809Y56285181D02*
X85259523Y56285181D01*
X85259523Y56285181D02*
X85354761Y56332800D01*
X85354761Y56332800D02*
X85402380Y56380420D01*
X41015476Y33945181D02*
X41348809Y34421372D01*
X41586904Y33945181D02*
X41586904Y34945181D01*
X41586904Y34945181D02*
X41205952Y34945181D01*
X41205952Y34945181D02*
X41110714Y34897562D01*
X41110714Y34897562D02*
X41063095Y34849943D01*
X41063095Y34849943D02*
X41015476Y34754705D01*
X41015476Y34754705D02*
X41015476Y34611848D01*
X41015476Y34611848D02*
X41063095Y34516610D01*
X41063095Y34516610D02*
X41110714Y34468991D01*
X41110714Y34468991D02*
X41205952Y34421372D01*
X41205952Y34421372D02*
X41586904Y34421372D01*
X40586904Y33945181D02*
X40586904Y34945181D01*
X40586904Y34945181D02*
X40015476Y33945181D01*
X40015476Y33945181D02*
X40015476Y34945181D01*
X39015476Y33945181D02*
X39586904Y33945181D01*
X39301190Y33945181D02*
X39301190Y34945181D01*
X39301190Y34945181D02*
X39396428Y34802324D01*
X39396428Y34802324D02*
X39491666Y34707086D01*
X39491666Y34707086D02*
X39586904Y34659467D01*
D10*
%TO.C,J2*%
X11380500Y55635000D02*
X11380500Y53155000D01*
X11380500Y18365000D02*
X11380500Y20845000D01*
X13600000Y55635000D02*
X18619500Y55635000D01*
X13600000Y18365000D02*
X18619500Y18365000D01*
X18619500Y55635000D02*
X18619500Y53155000D01*
X18619500Y18365000D02*
X18619500Y20845000D01*
X19700000Y52600000D02*
G75*
G02*
X19500000Y52600000I-100000J0D01*
G01*
X19500000Y52600000D02*
G75*
G02*
X19700000Y52600000I100000J0D01*
G01*
D12*
%TO.C,RN3*%
X44450000Y41345000D02*
X43450000Y41345000D01*
X44450000Y37105000D02*
X43450000Y37105000D01*
%TO.C,RN2*%
X56450000Y36270000D02*
X55450000Y36270000D01*
X56450000Y32030000D02*
X55450000Y32030000D01*
%TO.C,RN4*%
X56450000Y41320000D02*
X55450000Y41320000D01*
X56450000Y37080000D02*
X55450000Y37080000D01*
%TO.C,H1*%
D13*
X25425000Y13050000D02*
X5025000Y13050000D01*
X5025000Y4650000D01*
X25425000Y4650000D01*
X25425000Y13050000D01*
D10*
%TO.C,J3*%
X81380500Y55635000D02*
X81380500Y53155000D01*
X81380500Y18365000D02*
X81380500Y20845000D01*
X83600000Y55635000D02*
X88619500Y55635000D01*
X83600000Y18365000D02*
X88619500Y18365000D01*
X88619500Y55635000D02*
X88619500Y53155000D01*
X88619500Y18365000D02*
X88619500Y20845000D01*
X89700000Y52600000D02*
G75*
G02*
X89500000Y52600000I-100000J0D01*
G01*
X89500000Y52600000D02*
G75*
G02*
X89700000Y52600000I100000J0D01*
G01*
D12*
%TO.C,RN1*%
X44450000Y36270000D02*
X43450000Y36270000D01*
X44450000Y32030000D02*
X43450000Y32030000D01*
%TD*%
M02*
